# xmcd
# Track frame offsets:
# 177
# 13165
# 30857
# 43092
# 57187
# 70455
# 84315
# 97205
# 108187
# 121720
# 136872
# 150110
#
# Disc length: 2227 seconds
# Revision: 0
# Processed by: cddbd v1.5PL3 Copyright (c) Steve Scherf et al.
# Submitted via: VisiTrax 2.9.9.202 - For more info visit www.synapsa.com
#
DISCID=8b08b10c
DTITLE=Sandy Kelly - You Need A Friend
DYEAR=1991
DGENRE=
TTITLE0=You Know Your Way Around My Heart
TTITLE1=Katie
TTITLE2=San Antone Rose
TTITLE3=She´s Got You
TTITLE4=Your Cheating Heart
TTITLE5=Crazy Arms
TTITLE6=Scenes Of The Crime
TTITLE7=Walkin in The Light Of Love
TTITLE8=Time Stood Still
TTITLE9=Anna
TTITLE10=A FoolSuch As I
TTITLE11=Everytime (You Need A Friend)
EXTD=
EXTT0=
EXTT1=
EXTT2=
EXTT3=
EXTT4=
EXTT5=
EXTT6=
EXTT7=
EXTT8=
EXTT9=
EXTT10=
EXTT11=
PLAYORDER=
